<svg id="Capa_1" enable-background="new 0 0 512 512" height="512" viewBox="0 0 512 512" width="512" xmlns="http://www.w3.org/2000/svg"><g><g><g><path d="m468.164 149.772c-2.848-3.285-6.982-5.172-11.33-5.172h-401.668c-4.348 0-8.482 1.887-11.332 5.172-2.849 3.285-4.133 7.644-3.518 11.949l48.202 337.4c1.056 7.39 7.384 12.879 14.849 12.879h305.266c7.465 0 13.795-5.489 14.85-12.879l48.199-337.4c.615-4.305-.668-8.664-3.518-11.949z" fill="#dd4a4a"/><path d="m468.164 149.772c-2.848-3.285-6.982-5.172-11.33-5.172h-200.834v367.4h152.633c7.465 0 13.795-5.489 14.85-12.879l48.199-337.4c.615-4.305-.668-8.664-3.518-11.949z" fill="#cf0050"/><path d="m371.68 19.28c-14.33 0-28.266 3.28-40.916 9.568-20.389-18.459-47.02-28.848-74.764-28.848-27.746 0-54.377 10.388-74.764 28.849-12.65-6.288-26.584-9.568-40.916-9.568-50.795 0-92.121 41.324-92.121 92.119 0 8.284 6.717 15 15 15h385.602c8.283 0 15-6.716 15-15 0-50.795-41.324-92.12-92.121-92.12z" fill="#f2d231"/><path d="m463.801 111.399c0-50.795-41.324-92.119-92.121-92.119-14.33 0-28.266 3.28-40.916 9.568-20.389-18.459-47.02-28.848-74.764-28.848v126.399h192.801c8.283 0 15-6.715 15-15z" fill="#e79d26"/></g><path d="m456.834 96.399h-401.668c-21.559 0-39.1 17.54-39.1 39.101 0 21.56 17.541 39.1 39.1 39.1h401.668c21.559 0 39.1-17.54 39.1-39.1s-17.541-39.101-39.1-39.101z" fill="#faf3f4"/><path d="m456.834 96.399h-200.834v78.2h200.834c21.559 0 39.1-17.54 39.1-39.1 0-21.559-17.541-39.1-39.1-39.1z" fill="#daebeb"/></g><g><path d="m198.684 158.886c-.395-8.273-7.426-14.637-15.697-14.27-8.275.395-14.664 7.422-14.27 15.697l16.748 351.687h30.035z" fill="#faf3f4"/></g><g><path d="m313.318 158.886c.395-8.273 7.426-14.637 15.697-14.27 8.275.395 14.664 7.422 14.27 15.697l-16.748 351.687h-30.035z" fill="#daebeb"/></g></g></svg>